<svg width="270" height="270" viewBox="0 0 270 270" fill="none" xmlns="http://www.w3.org/2000/svg">
<path d="M0 0H270V270H0V0Z" fill="#1A365D"/>
<path d="M241.1 64V68C236.7 68.8 232.233 70.4667 227.7 73C223.167 75.5333 218.5 79.6667 213.7 85.4L175.9 131.8L184.9 117.4L232.7 189.4C234.833 192.467 237.033 194.933 239.3 196.8C241.567 198.667 244.5 200.267 248.1 201.6V205.6C243.967 205.333 239.233 205.2 233.9 205.2C228.567 205.067 223.7 205 219.3 205C216.767 205 213.567 205.067 209.7 205.2C205.967 205.2 201.233 205.333 195.5 205.6V201.6C200.833 201.333 204.033 200.6 205.1 199.4C206.167 198.067 205.7 195.8 203.7 192.6L174.5 146.6C172.367 143.133 170.433 140.533 168.7 138.8C167.1 137.067 165.433 135.933 163.7 135.4C161.967 134.733 159.833 134.333 157.3 134.2V130.2C162.9 129.933 167.9 128.467 172.3 125.8C176.7 123.133 181.1 119.2 185.5 114L199.7 96.2C204.633 90.3333 207.633 85.3333 208.7 81.2C209.767 77.0667 209.167 73.8667 206.9 71.6C204.633 69.3333 200.833 68.1333 195.5 68V64C198.433 64.1333 201.367 64.2667 204.3 64.4C207.233 64.4 210.167 64.4667 213.1 64.6C216.167 64.6 219.367 64.6 222.7 64.6C226.567 64.6 230.033 64.5333 233.1 64.4C236.167 64.2667 238.833 64.1333 241.1 64Z" fill="white"/>
<path d="M106.4 205.95V201.95C110.8 201.683 114.067 201.15 116.2 200.35C118.467 199.55 119.933 197.95 120.6 195.55C121.4 193.15 121.8 189.55 121.8 184.75V85.5499C121.8 80.6166 121.4 77.0166 120.6 74.7499C119.933 72.3499 118.467 70.7499 116.2 69.9499C114.067 69.0166 110.8 68.4832 106.4 68.3499V64.3499C110 64.4832 114.467 64.6166 119.8 64.7499C125.133 64.8832 130.467 64.9499 135.8 64.9499C141.667 64.9499 147.133 64.8832 152.2 64.7499C157.4 64.6166 161.533 64.4832 164.6 64.3499V68.3499C160.333 68.4832 157.067 69.0166 154.8 69.9499C152.667 70.7499 151.2 72.3499 150.4 74.7499C149.6 77.0166 149.2 80.6166 149.2 85.5499V184.75C149.2 189.55 149.6 193.15 150.4 195.55C151.2 197.95 152.667 199.55 154.8 200.35C157.067 201.15 160.333 201.683 164.6 201.95V205.95C161.533 205.683 157.4 205.55 152.2 205.55C147.133 205.416 141.667 205.35 135.8 205.35C130.467 205.35 125.133 205.416 119.8 205.55C114.467 205.55 110 205.683 106.4 205.95ZM22 205.95V201.95C26.4 201.683 29.6667 201.15 31.8 200.35C34.0667 199.55 35.5333 197.95 36.2 195.55C37 193.15 37.4 189.55 37.4 184.75V85.5499C37.4 80.6166 37 77.0166 36.2 74.7499C35.5333 72.3499 34.0667 70.7499 31.8 69.9499C29.6667 69.0166 26.4 68.4832 22 68.3499V64.3499C25.3333 64.4832 29.6 64.6166 34.8 64.7499C40 64.8832 45.6 64.9499 51.6 64.9499C56.9333 64.9499 62.2 64.8832 67.4 64.7499C72.6 64.6166 76.8667 64.4832 80.2 64.3499V68.3499C75.9333 68.4832 72.6667 69.0166 70.4 69.9499C68.2667 70.7499 66.8 72.3499 66 74.7499C65.2 77.0166 64.8 80.6166 64.8 85.5499V184.75C64.8 189.55 65.2 193.15 66 195.55C66.8 197.95 68.2667 199.55 70.4 200.35C72.6667 201.15 75.9333 201.683 80.2 201.95V205.95C76.8667 205.683 72.6 205.55 67.4 205.55C62.2 205.416 56.9333 205.35 51.6 205.35C45.6 205.35 40 205.416 34.8 205.55C29.6 205.55 25.3333 205.683 22 205.95ZM53.8 136.75V132.75H132.8V136.75H53.8Z" fill="white"/>
</svg>
